<svg width="15" height="11" viewBox="0 0 15 11" fill="none" xmlns="http://www.w3.org/2000/svg">
<path d="M13.7422 4.71932C14.1518 4.71932 14.4838 5.05135 14.4838 5.46094C14.4838 5.87052 14.1518 6.20256 13.7422 6.20256L13.7422 5.46094L13.7422 4.71932ZM0.217783 5.98534C-0.0718374 5.69572 -0.0718374 5.22615 0.217783 4.93653L4.93742 0.216892C5.22704 -0.0727284 5.69661 -0.0727284 5.98623 0.216893C6.27585 0.506513 6.27585 0.976081 5.98623 1.2657L1.791 5.46094L5.98623 9.65617C6.27585 9.94579 6.27585 10.4154 5.98623 10.705C5.69661 10.9946 5.22704 10.9946 4.93742 10.705L0.217783 5.98534ZM13.7422 5.46094L13.7422 6.20256L0.742187 6.20256L0.742188 5.46094L0.742188 4.71932L13.7422 4.71932L13.7422 5.46094Z" fill="white"/>
</svg>
