<svg width="15" height="12" viewBox="0 0 15 12" fill="none" xmlns="http://www.w3.org/2000/svg">
<path d="M1 5.25838C0.590415 5.25838 0.25838 5.59041 0.25838 6C0.25838 6.40959 0.590415 6.74162 1 6.74162L1 5.25838ZM14.5244 6.5244C14.814 6.23478 14.814 5.76521 14.5244 5.47559L9.80476 0.755955C9.51514 0.466334 9.04558 0.466334 8.75596 0.755955C8.46633 1.04558 8.46633 1.51514 8.75596 1.80476L12.9512 6L8.75596 10.1952C8.46634 10.4849 8.46634 10.9544 8.75596 11.244C9.04558 11.5337 9.51514 11.5337 9.80477 11.244L14.5244 6.5244ZM1 6L1 6.74162L14 6.74162L14 6L14 5.25838L1 5.25838L1 6Z" fill="black"/>
</svg>
